<svg xmlns="http://www.w3.org/2000/svg" xmlns:xlink="http://www.w3.org/1999/xlink">
  <defs>
    <!-- Спрайт для вашего логотипа Mochi -->
    <symbol id="icon-Mochi" viewBox="0 0 153 119">
      <g clip-path="url(#clip0_127_89)">
        <path d="M119.244 0H33.7557V78H119.244V0Z" fill="url(#pattern0_127_89)" />
        <g filter="url(#filter0_d_127_89)">
          <path d="M37.6953 81.9715L37.1172 82.0199C37.3741 92.1263 37.7435 99.3105 38.2253 103.573C38.3538 104.606 38.8035 105.655 39.5744 106.721C40.3774 107.754 40.7789 108.642 40.7789 109.385C40.7789 110.095 40.5541 110.708 40.1044 111.225C39.6868 111.742 39.1086 112 38.3699 112C37.6632 112 37.0529 111.564 36.539 110.692C36.0572 109.788 35.7681 108.82 35.6717 107.786C34.8366 96.9696 33.873 88.8167 32.7809 83.3276C29.8579 84.8129 26.9992 87.3799 24.2047 91.0285C26.7422 95.0646 28.011 98.5033 28.011 101.345C28.011 104.154 27.0634 106.592 25.1683 108.658C23.2732 110.692 21.5066 111.709 19.8684 111.709C18.2303 111.709 16.9615 111.177 16.0621 110.111C15.1949 109.046 14.7613 107.738 14.7613 106.188C14.7613 104.606 15.2752 102.62 16.3031 100.231C17.363 97.8091 18.7442 95.2906 20.4466 92.6752C18.9369 90.4473 17.2185 88.4777 15.2913 86.7664C13.364 85.0228 11.485 83.8281 9.6541 83.1823C8.8832 88.6391 8.36928 92.7559 8.11231 95.5328C7.88747 98.2773 7.7108 101.264 7.58232 104.493C7.45384 107.689 7.37354 109.562 7.34142 110.111C7.3093 110.628 7.11657 111.08 6.76325 111.467C6.40992 111.822 5.99235 112 5.51055 112C5.02874 112 4.57905 111.822 4.16148 111.467C3.77604 111.08 3.58331 110.547 3.58331 109.869C3.58331 109.191 3.82422 107.27 4.30603 104.105C5.366 97.4862 5.96023 90.3181 6.08872 82.6011C4.77177 82.3105 4.1133 81.4872 4.1133 80.1311C4.1133 79.5176 4.40239 79.0171 4.98056 78.6296C5.55873 78.2099 6.26538 78 7.10051 78C9.5738 78 12.2398 79.0655 15.0985 81.1966C17.9894 83.2953 20.5911 85.943 22.9038 89.1396C25.345 85.8784 27.8665 83.2146 30.4682 81.1481C33.07 79.0494 35.479 78 37.6953 78C39.205 78 39.9598 78.6135 39.9598 79.8405C39.9598 80.4217 39.7029 80.9221 39.1889 81.3419C38.7071 81.7616 38.2093 81.9715 37.6953 81.9715ZM24.2047 103.04C24.2047 100.586 23.3535 97.8091 21.6511 94.7094C19.0494 98.9069 17.7485 102.071 17.7485 104.202C17.7485 105.365 18.0376 106.382 18.6157 107.254C19.226 108.125 19.9809 108.561 20.8802 108.561C21.7796 108.561 22.5505 107.996 23.1929 106.866C23.8674 105.704 24.2047 104.428 24.2047 103.04ZM49.7997 94.1282C49.7997 98.0351 50.94 101.442 53.2205 104.348C55.5332 107.254 58.4883 108.707 62.0858 108.707C65.6833 108.707 68.526 107.56 70.6138 105.268C72.7337 102.943 73.7937 99.8272 73.7937 95.9202C73.7937 91.981 72.6374 88.5584 70.3247 85.6524C68.0441 82.7464 65.0891 81.2934 61.4594 81.2934C57.8619 81.2934 55.0193 82.4558 52.9314 84.7806C50.8436 87.0731 49.7997 90.189 49.7997 94.1282ZM60.6404 112C56.4647 112 52.9475 110.499 50.0888 107.496C47.2621 104.461 45.8488 100.796 45.8488 96.5014C45.8488 91.1415 47.4549 86.7179 50.6669 83.2308C53.879 79.7436 57.9743 78 62.953 78C67.1287 78 70.6298 79.5176 73.4565 82.5527C76.3152 85.5556 77.7446 89.2042 77.7446 93.4986C77.7446 98.8585 76.1385 103.282 72.9265 106.769C69.7144 110.256 65.619 112 60.6404 112ZM97.1573 78C100.016 78 102.634 78.5812 105.011 79.7436C107.42 80.8737 108.625 82.1814 108.625 83.6667C108.625 84.3124 108.4 84.8613 107.95 85.3134C107.532 85.7654 107.019 85.9915 106.408 85.9915C105.798 85.9915 105.188 85.7493 104.577 85.265C103.967 84.7806 103.373 84.2479 102.795 83.6667C102.249 83.0532 101.365 82.5043 100.145 82.0199C98.9561 81.5356 97.5428 81.2934 95.9046 81.2934C92.2429 81.2934 89.352 82.4558 87.2321 84.7806C85.1442 87.0731 84.1003 90.2051 84.1003 94.1766C84.1003 98.1159 85.2566 101.522 87.5693 104.396C89.882 107.27 92.805 108.707 96.3382 108.707C99.9038 108.707 103.148 106.995 106.071 103.573C106.713 102.798 107.179 102.41 107.468 102.41C107.789 102.41 108.03 102.5233 108.191 102.7493C108.384 102.943 108.48 103.25 108.48 103.67C108.48 104.089 108.143 104.767 107.468 105.704C106.826 106.608 105.942 107.544 104.818 108.513C103.726 109.449 102.281 110.273 100.482 110.983C98.7152 111.661 96.8682 112 94.941 112C90.7011 112 87.1678 110.482 84.3412 107.447C81.5467 104.412 80.1495 100.505 80.1495 95.7265C80.1495 90.9155 81.7555 86.7664 84.9676 83.2792C88.2117 79.7597 92.275 78 97.1573 78ZM133.835 95.7265L125.163 95.4359C123.332 95.4359 121.533 95.4843 119.766 95.5812C119.766 98.584 119.831 101.555 119.959 104.493C120.12 107.431 120.2 109.159 120.2 109.675C120.2 110.192 119.975 110.708 119.525 111.225C119.108 111.742 118.562 112 117.887 112C117.213 112 116.651 111.742 116.201 111.225C115.783 110.708 115.575 110.176 115.575 109.627C115.575 109.046 115.639 107.318 115.767 104.444C115.896 101.571 115.976 98.6648 116.008 95.7265H115.43C114.916 95.7265 114.45 95.5651 114.033 95.2422C113.647 94.887 113.455 94.4188 113.455 93.8376C113.455 93.2564 113.647 92.8044 114.033 92.4815C114.45 92.1263 114.916 91.9487 115.43 91.9487H116.008C115.976 89.2365 115.896 86.7502 115.767 84.49C115.639 82.2298 115.575 80.8576 115.575 80.3732C115.575 79.8566 115.783 79.34 116.201 78.8234C116.651 78.3067 117.213 78.0484 117.887 78.0484C118.562 78.0484 119.108 78.3067 119.525 78.8234C119.975 79.34 120.2 79.8243 120.2 80.2764C120.2 80.7284 120.136 82.1168 120.007 84.4416C119.879 86.7664 119.798 89.3172 119.766 92.094C121.501 92.1909 123.3 92.2393 125.163 92.2393L133.835 91.9487C133.803 89.2365 133.723 86.7502 133.594 84.49C133.466 82.2298 133.402 80.8576 133.402 80.3732C133.402 79.8566 133.61 79.34 134.028 78.8234C134.478 78.3067 135.04 78.0484 135.714 78.0484C136.389 78.0484 136.935 78.3067 137.352 78.8234C137.802 79.34 138.027 79.9212 138.027 80.567C138.027 80.6638 137.947 82.1491 137.786 85.0228C137.658 87.8965 137.593 91.0608 137.593 94.5157C137.593 97.9706 137.658 101.232 137.786 104.299C137.947 107.367 138.027 109.159 138.027 109.675C138.027 110.192 137.802 110.708 137.352 111.225C136.935 111.742 136.389 112 135.714 112C135.04 112 134.478 111.742 134.028 111.225C133.61 110.708 133.402 110.176 133.402 109.627C133.402 109.046 133.466 107.318 133.594 104.444C133.723 101.571 133.803 98.6648 133.835 95.7265ZM149.417 80.6154C149.417 80.7123 149.336 82.1975 149.176 85.0712C149.047 87.9126 148.982 91.0608 148.982 94.5157C148.982 97.9706 149.047 101.232 149.176 104.299C149.336 107.367 149.417 109.159 149.417 109.675C149.417 110.192 149.192 110.708 148.742 111.225C148.325 111.742 147.778 112 147.104 112C146.429 112 145.867 111.742 145.418 111.225C145 110.708 144.791 110.192 144.791 109.675C144.791 109.159 144.856 107.367 144.984 104.299C145.145 101.232 145.225 97.9706 145.225 94.5157C145.225 91.0608 145.145 87.9126 144.984 85.0712C144.856 82.1975 144.791 80.7123 144.791 80.6154C144.791 79.9373 145 79.34 145.418 78.8234C145.867 78.2745 146.429 78 147.104 78C147.778 78 148.325 78.2745 148.742 78.8234C149.192 79.34 149.417 79.9373 149.417 80.6154Z" fill="#C51A62" />
        </g>
      </g>
    </symbol>
  </defs>
</svg>
