
<svg xmlns="http://www.w3.org/2000/svg" xmlns:xlink="http://www.w3.org/1999/xlink" style="display: none;">
  <!-- Иконка 1 -->
  <symbol id="icon-Mochi" viewBox="0 0 153 41">
    <g filter="url(#filter0_d_75_114)">
      <path d="M37.6953 3.97151L37.1172 4.01994C37.3741 14.1263 37.7435 21.3105 38.2253 25.5727C38.3538 26.6059 38.8035 27.6553 39.5744 28.7208C40.3774 29.754 40.7789 30.642 40.7789 31.3846C40.7789 32.095 40.5541 32.7085 40.1044 33.2251C39.6868 33.7417 39.1086 34 38.3699 34C37.6632 34 37.0529 33.5641 36.539 32.6923C36.0572 31.7882 35.7681 30.8196 35.6717 29.7863C34.8366 18.9696 33.873 10.8167 32.7809 5.32764C29.8579 6.81292 26.9992 9.37987 24.2047 13.0285C26.7422 17.0646 28.011 20.5033 28.011 23.3447C28.011 26.1538 27.0634 28.5916 25.1683 30.6581C23.2732 32.6923 21.5066 33.7094 19.8684 33.7094C18.2303 33.7094 16.9615 33.1766 16.0621 32.1111C15.1949 31.0456 14.7613 29.7379 14.7613 28.188C14.7613 26.6059 15.2752 24.6201 16.3031 22.2308C17.363 19.8091 18.7442 17.2906 20.4466 14.6752C18.9369 12.4473 17.2185 10.4777 15.2913 8.76638C13.364 7.02279 11.485 5.82811 9.6541 5.18234C8.8832 10.6391 8.36928 14.7559 8.11231 17.5328C7.88747 20.2773 7.7108 23.264 7.58232 26.4929C7.45384 29.6895 7.37354 31.5622 7.34142 32.1111C7.3093 32.6277 7.11657 33.0798 6.76325 33.4672C6.40992 33.8224 5.99235 34 5.51055 34C5.02874 34 4.57905 33.8224 4.16148 33.4672C3.77604 33.0798 3.58331 32.547 3.58331 31.8689C3.58331 31.1909 3.82422 29.2697 4.30603 26.1054C5.366 19.4862 5.96023 12.3181 6.08872 4.60114C4.77177 4.31054 4.1133 3.48718 4.1133 2.13106C4.1133 1.51757 4.40239 1.01709 4.98056 0.62963C5.55873 0.209877 6.26538 0 7.10051 0C9.5738 0 12.2398 1.06553 15.0985 3.19658C17.9894 5.29535 20.5911 7.94302 22.9038 11.1396C25.345 7.87844 27.8665 5.21463 30.4682 3.14815C33.07 1.04938 35.479 0 37.6953 0C39.205 0 39.9598 0.613487 39.9598 1.84046C39.9598 2.42165 39.7029 2.92213 39.1889 3.34188C38.7071 3.76163 38.2093 3.97151 37.6953 3.97151ZM24.2047 25.0399C24.2047 22.5859 23.3535 19.8091 21.6511 16.7094C19.0494 20.9069 17.7485 24.0712 17.7485 26.2023C17.7485 27.3647 18.0376 28.3818 18.6157 29.2536C19.226 30.1254 19.9809 30.5613 20.8802 30.5613C21.7796 30.5613 22.5505 29.9962 23.1929 28.8661C23.8674 27.7037 24.2047 26.4283 24.2047 25.0399ZM49.7997 16.1282C49.7997 20.0351 50.94 23.4416 53.2205 26.3476C55.5332 29.2536 58.4883 30.7066 62.0858 30.7066C65.6833 30.7066 68.526 29.5603 70.6138 27.2678C72.7337 24.943 73.7937 21.8272 73.7937 17.9202C73.7937 13.981 72.6374 10.5584 70.3247 7.65242C68.0441 4.74644 65.0891 3.29345 61.4594 3.29345C57.8619 3.29345 55.0193 4.45584 52.9314 6.78063C50.8436 9.07313 49.7997 12.189 49.7997 16.1282ZM60.6404 34C56.4647 34 52.9475 32.4986 50.0888 29.4957C47.2621 26.4606 45.8488 22.7958 45.8488 18.5014C45.8488 13.1415 47.4549 8.71795 50.6669 5.23077C53.879 1.74359 57.9743 0 62.953 0C67.1287 0 70.6298 1.51757 73.4565 4.55271C76.3152 7.55556 77.7446 11.2042 77.7446 15.4986C77.7446 20.8585 76.1385 25.2821 72.9265 28.7692C69.7144 32.2564 65.619 34 60.6404 34ZM97.1573 0C100.016 0 102.634 0.581197 105.011 1.74359C107.42 2.8737 108.625 4.18139 108.625 5.66667C108.625 6.31244 108.4 6.86135 107.95 7.31339C107.532 7.76543 107.019 7.99146 106.408 7.99146C105.798 7.99146 105.188 7.74929 104.577 7.26496C103.967 6.78063 103.373 6.24786 102.795 5.66667C102.249 5.05318 101.365 4.50427 100.145 4.01994C98.9561 3.53561 97.5428 3.29345 95.9046 3.29345C92.2429 3.29345 89.352 4.45584 87.2321 6.78063C85.1442 9.07313 84.1003 12.2051 84.1003 16.1766C84.1003 20.1159 85.2566 23.5223 87.5693 26.396C89.882 29.2697 92.805 30.7066 96.3382 30.7066C99.9038 30.7066 103.148 28.9953 106.071 25.5727C106.713 24.7977 107.179 24.4103 107.468 24.4103C107.789 24.4103 108.03 24.5233 108.191 24.7493C108.384 24.943 108.48 25.2498 108.48 25.6695C108.48 26.0893 108.143 26.7673 107.468 27.7037C106.826 28.6078 105.942 29.5442 104.818 30.5128C103.726 31.4492 102.281 32.2726 100.482 32.9829C98.7152 33.661 96.8682 34 94.941 34C90.7011 34 87.1678 32.4824 84.3412 29.4473C81.5467 26.4122 80.1495 22.5052 80.1495 17.7265C80.1495 12.9155 81.7555 8.76638 84.9676 5.2792C88.2117 1.75973 92.275 0 97.1573 0ZM133.835 17.7265L125.163 17.4359C123.332 17.4359 121.533 17.4843 119.766 17.5812C119.766 20.584 119.831 23.5546 119.959 26.4929C120.12 29.4312 120.2 31.1586 120.2 31.6752C120.2 32.1918 119.975 32.7085 119.525 33.2251C119.108 33.7417 118.562 34 117.887 34C117.213 34 116.651 33.7417 116.201 33.2251C115.783 32.7085 115.575 32.1757 115.575 31.6268C115.575 31.0456 115.639 29.3181 115.767 26.4444C115.896 23.5708 115.976 20.6648 116.008 17.7265H115.43C114.916 17.7265 114.45 17.5651 114.033 17.2422C113.647 16.887 113.455 16.4188 113.455 15.8376C113.455 15.2564 113.647 14.8044 114.033 14.4815C114.45 14.1263 114.916 13.9487 115.43 13.9487H116.008C115.976 11.2365 115.896 8.75024 115.767 6.49003C115.639 4.22982 115.575 2.85755 115.575 2.37322C115.575 1.8566 115.783 1.33998 116.201 0.823364C116.651 0.306745 117.213 0.0484334 117.887 0.0484334C118.562 0.0484334 119.108 0.306745 119.525 0.823364C119.975 1.33998 120.2 1.82431 120.2 2.27635C120.2 2.7284 120.136 4.11681 120.007 6.4416C119.879 8.76638 119.798 11.3172 119.766 14.094C121.501 14.1909 123.3 14.2393 125.163 14.2393L133.835 13.9487C133.803 11.2365 133.723 8.75024 133.594 6.49003C133.466 4.22982 133.402 2.85755 133.402 2.37322C133.402 1.8566 133.61 1.33998 134.028 0.823364C134.478 0.306745 135.04 0.0484334 135.714 0.0484334C136.389 0.0484334 136.935 0.306745 137.352 0.823364C137.802 1.33998 138.027 1.92118 138.027 2.56695C138.027 2.66382 137.947 4.1491 137.786 7.02279C137.658 9.89649 137.593 13.0608 137.593 16.5157C137.593 19.9706 137.658 23.2317 137.786 26.2991C137.947 29.3666 138.027 31.1586 138.027 31.6752C138.027 32.1918 137.802 32.7085 137.352 33.2251C136.935 33.7417 136.389 34 135.714 34C135.04 34 134.478 33.7417 134.028 33.2251C133.61 32.7085 133.402 32.1757 133.402 31.6268C133.402 31.0456 133.466 29.3181 133.594 26.4444C133.723 23.5708 133.803 20.6648 133.835 17.7265ZM149.417 2.61539C149.417 2.71225 149.336 4.19753 149.176 7.07122C149.047 9.91263 148.982 13.0608 148.982 16.5157C148.982 19.9706 149.047 23.2317 149.176 26.2991C149.336 29.3666 149.417 31.1586 149.417 31.6752C149.417 32.1918 149.192 32.7085 148.742 33.2251C148.325 33.7417 147.778 34 147.104 34C146.429 34 145.867 33.7417 145.418 33.2251C145 32.7085 144.791 32.1918 144.791 31.6752C144.791 31.1586 144.856 29.3666 144.984 26.2991C145.145 23.2317 145.225 19.9706 145.225 16.5157C145.225 13.0608 145.145 9.91263 144.984 7.07122C144.856 4.19753 144.791 2.71225 144.791 2.61539C144.791 1.93732 145 1.33998 145.418 0.823364C145.867 0.274456 146.429 0 147.104 0C147.778 0 148.325 0.274456 148.742 0.823364C149.192 1.33998 149.417 1.93732 149.417 2.61539Z" fill="#C51A62" />
    </g>
  </symbol>
</svg>

