
<svg xmlns="http://www.w3.org/2000/svg" style="display: none;">
  
  <symbol id="icon-Mochi" viewBox="0 0 153 119">
    <g clip-path="url(#clip0_127_89)">
      <path d="M119.244 0H33.7557V78H119.244V0Z" fill="url(#pattern0_127_89)" />
      <g filter="url(#filter0_d_127_89)">
        <path d="M37.6953 81.9715L37.1172 82.0199C37.3741 92.1263 37.7435 99.3105 38.2253 103.573C38.3538 104.606 38.8035 105.655 39.5744 106.721C40.3774 107.754 40.7789 108.642 40.7789 109.385C40.7789 110.095 40.5541 110.708 40.1044 111.225C39.6868 111.742 39.1086 112 38.3699 112C37.6632 112 37.0529 111.564 36.539 110.692C36.0572 109.788 35.7681 108.82 35.6717 107.786C34.8366 96.9696 33.873 88.8167 32.7809 83.3276C29.8579 84.8129 26.9992 87.3799 24.2047 91.0285C26.7422 95.0646 28.011 98.5033 28.011 101.345C28.011 104.154 27.0634 106.592 25.1683 108.658C23.2732 110.692 21.5066 111.709 19.8684 111.709C18.2303 111.709 16.9615 111.177 16.0621 110.111C15.1949 109.046 14.7613 107.738 14.7613 106.188C14.7613 104.606 15.2752 102.62 16.3031 100.231C17.363 97.8091 18.7442 95.2906 20.4466 92.6752C18.9369 90.4473 17.2185 88.4777 15.2913 86.7664C13.364 85.0228 11.485 83.8281 9.6541 83.1823C8.8832 88.6391 8.36928 92.7559 8.11231 95.5328C7.88747 98.2773 7.7108 101.264 7.58232 104.493C7.45384 107.689 7.37354 109.562 7.34142 110.111C7.3093 110.628 7.11657 111.08 6.76325 111.467C6.40992 111.822 5.99235 112 5.51055 112C5.02874 112 4.57905 111.822 4.16148 111.467C3.77604 111.08 3.58331 110.547 3.58331 109.869C3.58331 109.191 3.82422 107.27 4.30603 104.105C5.366 97.4862 5.96023 90.3181 6.08872 82.6011C4.77177 82.3105 4.1133 81.4872 4.1133 80.1311C4.1133 79.5176 4.40239 79.0171 4.98056 78.6296C5.55873 78.2099 6.26538 78 7.10051 78C9.5738 78 12.2398 79.0655 15.0985 81.1966C17.9894 83.2953 20.5911 85.943 22.9038 89.1396C25.345 85.8784 27.8665 83.2146 30.4682 81.1481C33.07 79.0494 35.479 78 37.6953 78C39.205 78 39.9598 78.6135 39.9598 79.8405C39.9598 80.4217 39.7029 80.9221 39.1889 81.3419C38.7071 81.7616 38.2093 81.9715 37.6953 81.9715ZM24.2047 103.04C24.2047 100.586 23.3535 97.8091 21.6511 94.7094C19.0494 98.9069 17.7485 102.071 17.7485 104.202C17.7485 105.365 18.0376 106.382 18.6157 107.254C19.226 108.125 19.9809 108.561 20.8802 108.561C21.7796 108.561 22.5505 107.996 23.1929 106.866C23.8674 105.704 24.2047 104.428 24.2047 103.04ZM49.7997 94.1282C49.7997 98.0351 50.94 101.442 53.2205 104.348C55.5332 107.254 58.4883 108.707 62.0858 108.707C65.6833 108.707 68.526 107.56 70.6138 105.268C72.7337 102.943 73.7937 99.8272 73.7937 95.9202C73.7937 91.981 72.6374 88.5584 70.3247 85.6524C68.0441 82.7464 65.0891 81.2934 61.4594 81.2934C57.8619 81.2934 55.0193 82.4558 52.9314 84.7806C50.8436 87.0731 49.7997 90.189 49.7997 94.1282Z" fill="#C51A62" />
      </g>
    </g>
  </symbol>
  
  
  <symbol id="icon-Pattern" viewBox="0 0 87 78">
    <path d="M86.2442 0H0.755737V78H86.2442V0Z" fill="url(#pattern0_75_113)" />
  </symbol>
</svg>

